#!OML:ASF I:\Actors\actors\Patient Classification 2\Patient 1\Session 1\actor1.ASF
:FULLY-SPECIFIED
:DEGREES
358
root -0.486841 18.6067 4.65522 2.99298 -7.38683 -1.91529
lowerback 35.1501 0.92479 0.107662
upperback 13.9131 1.19547 2.67371
thorax -2.51655 0.412102 2.34876
lowerneck -12.7727 -1.92075 -0.253142
upperneck 18.4577 -3.51566 4.59479
head 7.9018 -1.242 1.18996
rclavicle 2.38542e-015 3.65764e-014
rhumerus 6.03839 64.1098 -80.3304
rradius 146.275
rwrist -6.19268
rhand -36.5874 -35.0363
rfingers 7.12502
rthumb -9.67654 -64.794
lclavicle 2.38542e-015 3.65764e-014
lhumerus 19.7429 -67.0974 77.2959
lradius 138.766
lwrist 22.47
lhand -32.324 -56.1358
lfingers 7.12502
lthumb -5.56161 -26.2288
rfemur -6.14846 5.17058 15.3421
rtibia 12.668
rfoot -16.6921 -10.9842
rtoes -11.4089
lfemur -15.4427 3.90897 -12.8264
ltibia 31.1076
lfoot -19.0958 9.42239
ltoes -56.0138
359
root -0.483082 18.6094 4.65122 3.07621 -7.35396 -1.94597
lowerback 35.3237 0.892989 0.189652
upperback 13.9868 1.18053 2.67614
thorax -2.49351 0.406237 2.31244
lowerneck -12.9038 -1.94882 -0.202136
upperneck 18.3978 -3.57434 4.64847
head 7.90762 -1.26017 1.19183
rclavicle -1.51076e-014 1.78906e-014
rhumerus 6.26877 64.1684 -80.1697
rradius 146.178
rwrist -5.75085
rhand -36.6771 -34.7485
rfingers 7.12502
rthumb -9.76313 -64.5022
lclavicle -1.51076e-014 1.78906e-014
lhumerus 20.2824 -67.1311 76.8913
lradius 138.664
lwrist 22.1017
lhand -33.1413 -56.1094
lfingers 7.12502
lthumb -6.35061 -26.2246
rfemur -6.20258 5.1376 15.3564
rtibia 12.5848
rfoot -16.6267 -11.0453
rtoes -11.6115
lfemur -15.5677 3.9078 -12.8113
ltibia 31.1244
lfoot -19.0379 9.41092
ltoes -56.0077
360
root -0.478348 18.6113 4.64476 3.16079 -7.31275 -1.99304
lowerback 35.5651 0.851364 0.285425
upperback 14.0922 1.15914 2.70733
thorax -2.45898 0.39578 2.30103
lowerneck -13.1742 -1.97983 -0.329219
upperneck 18.4103 -3.63265 4.83855
head 7.96826 -1.27377 1.26754
rclavicle -1.03368e-014 -2.90226e-014
rhumerus 6.61597 64.14 -79.9405
rradius 146.272
rwrist -5.77077
rhand -36.5388 -35.1773
rfingers 7.12502
rthumb -9.62966 -64.9372
lclavicle -1.03368e-014 -2.90226e-014
lhumerus 20.7404 -67.0295 76.5943
lradius 138.609
lwrist 21.9916
lhand -33.5572 -56.0647
lfingers 7.12502
lthumb -6.75208 -26.1923
rfemur -6.28529 5.10855 15.385
rtibia 12.5365
rfoot -16.5612 -11.1036
rtoes -11.8374
lfemur -15.7001 3.90333 -12.7781
ltibia 31.1443
lfoot -18.9654 9.37826
ltoes -55.9466
361
root -0.473237 18.6134 4.63675 3.26766 -7.31321 -2.01786
lowerback 35.9047 0.838279 0.339831
upperback 14.1443 1.16307 2.75048
thorax -2.51706 0.395568 2.31477
lowerneck -13.3192 -2.0056 -0.32077
upperneck 18.4489 -3.65834 4.76656
head 8.00625 -1.28905 1.23853
rclavicle 2.34566e-014 2.82274e-014
rhumerus 6.79212 64.2561 -79.8398
rradius 146.162
rwrist -5.12522
rhand -36.5194 -34.9345
rfingers 7.12502
rthumb -9.611 -64.6953
lclavicle 2.34566e-014 2.82274e-014
lhumerus 20.8746 -67.0223 76.5913
lradius 138.604
lwrist 22.1247
lhand -32.8356 -55.8784
lfingers 7.12502
lthumb -6.05546 -25.9849
rfemur -6.44371 5.0974 15.3829
rtibia 12.5537
rfoot -16.4974 -11.12
rtoes -11.8496
lfemur -15.8703 3.89449 -12.778
ltibia 31.1853
lfoot -18.9278 9.461
ltoes -56.1088
362
root -0.467831 18.6157 4.62703 3.42721 -7.32873 -1.96932
lowerback 36.1333 0.855612 0.300327
upperback 14.2545 1.1706 2.781
thorax -2.47572 0.393623 2.36459
lowerneck -13.3393 -2.00557 0.00975581
upperneck 18.3744 -3.64528 4.37457
head 7.97088 -1.29886 1.05498
rclavicle -1.15295e-014 -7.95139e-016
rhumerus 7.02628 64.151 -79.7271
rradius 146.252
rwrist -5.49427
rhand -36.5062 -34.9824
rfingers 7.12502
rthumb -9.59824 -64.7438
lclavicle -1.15295e-014 -7.95139e-016
lhumerus 20.9737 -66.862 76.6598
lradius 138.717
lwrist 22.8567
lhand -31.5181 -55.5286
lfingers 7.12502
lthumb -4.78339 -25.6026
rfemur -6.70756 5.0771 15.2899
rtibia 12.6314
rfoot -16.4298 -11.1104
rtoes -11.9392
lfemur -16.1341 3.90109 -12.8673
ltibia 31.2652
lfoot -18.9149 9.54213
ltoes -56.248
